<?xml version="1.0" encoding="UTF-8" standalone="no"?><svg xmlns="http://www.w3.org/2000/svg" xmlns:xlink="http://www.w3.org/1999/xlink" contentScriptType="text/ecmascript" fill="#000000" width="459.8" zoomAndPan="magnify" contentStyleType="text/css" viewBox="20.1 90.0 459.8 294.4" height="294.4" preserveAspectRatio="xMidYMid meet" version="1"><g id="change1_1"><path fill="#2a3f72" d="M246.4,282.4C181.5,244.8,133.2,90,20.1,131.2v129.3L246.4,282.4z"/></g><linearGradient x1="-9.19" y1="222.908" x2="371.732" gradientUnits="userSpaceOnUse" y2="447.161" xlink:type="simple" xlink:actuate="onLoad" id="a" xlink:show="other"><stop stop-color="#b16323" offset="0.002"/><stop stop-color="#f8d759" offset="0.422"/><stop stop-color="#b16323" offset="0.735"/><stop stop-color="#b76d28" offset="0.75"/><stop stop-color="#d39b3d" offset="0.83"/><stop stop-color="#e7bc4c" offset="0.901"/><stop stop-color="#f4d056" offset="0.96"/><stop stop-color="#f8d759" offset="1"/></linearGradient><path fill="url(#a)" d="M20.1,168.1c145.6-54.5,209.2,207.4,459.8,207.4l0,0H20.1V168.1z"/><g id="change1_2"><path fill="#2a3f72" d="M20.1,203.1c145.6-48.7,239.6,181.3,459.8,172.4l0,0H20.1V203.1z"/></g><linearGradient x1="213.256" y1="367.749" x2="249.441" gradientUnits="userSpaceOnUse" y2="290.49" xlink:type="simple" xlink:actuate="onLoad" id="b" xlink:show="other"><stop offset="0"/><stop stop-opacity="0" offset="1"/></linearGradient><path fill="url(#b)" d="M20.1,203.1c145.6-48.7,239.6,181.3,459.8,172.4 l0,0H20.1V203.1z"/><g id="change1_3"><path fill="#2a3f72" d="M20.1,237c75.5-36.8,112,44.3,237.2,115.8l-237.2-9.6V237z"/></g><linearGradient x1="20.125" y1="315.322" x2="374.175" gradientUnits="userSpaceOnUse" y2="315.322" xlink:type="simple" xlink:actuate="onLoad" id="c" xlink:show="other"><stop stop-color="#b16323" offset="0.002"/><stop stop-color="#f8d759" offset="0.422"/><stop stop-color="#b16323" offset="0.735"/><stop stop-color="#b76d28" offset="0.75"/><stop stop-color="#d39b3d" offset="0.83"/><stop stop-color="#e7bc4c" offset="0.901"/><stop stop-color="#f4d056" offset="0.96"/><stop stop-color="#f8d759" offset="1"/></linearGradient><path fill="url(#c)" d="M374.2,375.5c-178.8,0-232.7-155.3-354.1-113.1 v113.1H374.2z"/><g id="change1_4"><path fill="#2a3f72" d="M374.2,375.5c-178.8,0-232.7-140.8-354.1-102.5v102.5H374.2z"/></g><linearGradient x1="180.878" y1="390.412" x2="194.915" gradientUnits="userSpaceOnUse" y2="333.331" xlink:type="simple" xlink:actuate="onLoad" id="d" xlink:show="other"><stop offset="0"/><stop stop-opacity="0" offset="1"/></linearGradient><path fill="url(#d)" d="M374.2,375.5c-178.8,0-232.7-140.8-354.1-102.5 v102.5H374.2z"/><g id="change1_5"><path fill="#2a3f72" d="M292.7,375.5c-137.6,0-164.1-68.2-272.5-46.7v46.7H292.7z"/></g><g><defs><g id="change2_1"><path id="e" d="M292.7,375.5c-137.6,0-164.1-68.2-272.5-46.7v46.7H292.7 z"/></g></defs><clipPath id="f"><use overflow="visible" xlink:actuate="onLoad" xlink:type="simple" xlink:show="embed" xlink:href="#e"/></clipPath><g clip-path="url(#f)"><g id="change3_2"><path fill="#2f4d6b" d="M290.8,384.4c0-1,0.8-1.8,1.8-1.8v0c1,0,1.8,0.8,1.8,1.8l0,0c0,1-0.8,1.8-1.8,1.8l0,0l0,0l0,0 C291.6,386.2,290.8,385.4,290.8,384.4z M281.6,384.3c0-1,0.9-1.8,1.9-1.8l0,0c1,0,1.8,0.9,1.8,1.9l0,0c0,1-0.9,1.8-1.9,1.8l0,0 l0,0l0,0C282.4,386.1,281.6,385.3,281.6,384.3z M274.2,385.8c-1,0-1.8-0.9-1.7-1.9l0,0c0-1,0.9-1.8,1.9-1.7l0,0 c1,0,1.8,0.9,1.8,1.9l0,0C276.1,385,275.3,385.8,274.2,385.8L274.2,385.8C274.3,385.8,274.2,385.8,274.2,385.8z M265,385.3 L265,385.3L265,385.3c-1-0.1-1.8-1-1.7-2l0,0c0.1-1,1-1.8,2-1.7l0,0c1,0.1,1.8,1,1.7,2l0,0c-0.1,1-0.9,1.7-1.8,1.7l0,0 C265.1,385.3,265,385.3,265,385.3z M255.8,384.5c-1-0.1-1.7-1-1.6-2l0,0c0.1-1,1-1.7,2-1.6l0,0c1,0.1,1.7,1,1.6,2l0,0 c-0.1,1-0.9,1.7-1.8,1.7l0,0C255.9,384.5,255.8,384.5,255.8,384.5z M246.6,383.5c-1-0.1-1.7-1-1.6-2.1l0,0c0.1-1,1-1.7,2.1-1.6 l0,0c1,0.1,1.7,1,1.6,2.1l0,0c-0.1,0.9-0.9,1.6-1.8,1.6l0,0C246.8,383.5,246.7,383.5,246.6,383.5z M237.4,382.2 c-1-0.2-1.7-1.1-1.5-2.1l0,0c0.2-1,1.1-1.7,2.1-1.5l0,0c1,0.2,1.7,1.1,1.5,2.1l0,0c-0.1,0.9-0.9,1.6-1.8,1.6l0,0 C237.6,382.2,237.5,382.2,237.4,382.2z M228.3,380.6c-1-0.2-1.7-1.1-1.5-2.1l0,0c0.2-1,1.1-1.7,2.2-1.5l0,0 c1,0.2,1.7,1.1,1.5,2.1l0,0c-0.2,0.9-0.9,1.5-1.8,1.5l0,0C228.6,380.7,228.5,380.6,228.3,380.6z M219.3,378.8 C219.3,378.8,219.3,378.8,219.3,378.8L219.3,378.8c-1-0.2-1.6-1.2-1.4-2.2l0,0c0.2-1,1.2-1.6,2.2-1.4l0,0c1,0.2,1.6,1.2,1.4,2.2 l0,0c-0.2,0.9-0.9,1.5-1.8,1.5l0,0C219.5,378.9,219.4,378.8,219.3,378.8z M210.3,376.7c-1-0.2-1.6-1.2-1.3-2.2l0,0 c0.2-1,1.2-1.6,2.2-1.4l0,0c1,0.2,1.6,1.2,1.4,2.2l0,0c-0.2,0.8-1,1.4-1.8,1.4l0,0C210.6,376.8,210.4,376.8,210.3,376.7z M201.3,374.4c-1-0.3-1.6-1.3-1.3-2.3l0,0c0.3-1,1.3-1.6,2.3-1.3l0,0c1,0.3,1.6,1.3,1.3,2.3l0,0c-0.2,0.8-1,1.4-1.8,1.4l0,0 C201.7,374.5,201.5,374.4,201.3,374.4z M192.5,371.8c-1-0.3-1.5-1.3-1.2-2.3l0,0c0.3-1,1.3-1.5,2.3-1.2l0,0 c1,0.3,1.5,1.3,1.2,2.3l0,0c-0.2,0.8-1,1.3-1.8,1.3l0,0C192.8,371.9,192.7,371.9,192.5,371.8z M183.7,369c-1-0.3-1.5-1.4-1.2-2.3 l0,0c0.3-1,1.4-1.5,2.3-1.2l0,0c1,0.3,1.5,1.4,1.2,2.3l0,0c-0.3,0.8-1,1.3-1.7,1.3l0,0C184.1,369.1,183.9,369.1,183.7,369z M175,366.1c-1-0.3-1.5-1.4-1.1-2.3l0,0c0.3-1,1.4-1.5,2.3-1.1l0,0c1,0.3,1.5,1.4,1.1,2.3l0,0c-0.3,0.8-1,1.2-1.7,1.2l0,0 C175.4,366.2,175.2,366.1,175,366.1z M166.3,362.9c-1-0.4-1.4-1.4-1.1-2.4l0,0c0.3-1,1.4-1.4,2.4-1.1v0c0.9,0.4,1.4,1.4,1.1,2.4 l0,0c-0.3,0.7-1,1.2-1.7,1.2l0,0C166.7,363,166.5,363,166.3,362.9z M157.7,359.7c-0.9-0.4-1.4-1.4-1.1-2.4l0,0 c0.4-0.9,1.4-1.4,2.4-1.1l0,0c0.9,0.4,1.4,1.4,1.1,2.4l0,0c-0.3,0.7-1,1.2-1.7,1.2l0,0C158.1,359.8,157.9,359.7,157.7,359.7z M149.1,356.4c-0.9-0.4-1.4-1.4-1.1-2.4l0,0c0.4-0.9,1.4-1.4,2.4-1.1l0,0c0.9,0.4,1.4,1.4,1,2.4l0,0c-0.3,0.7-1,1.2-1.7,1.2l0,0 C149.5,356.5,149.3,356.5,149.1,356.4z M140.5,353.1c-1-0.4-1.4-1.4-1.1-2.4l0,0c0.4-0.9,1.4-1.4,2.4-1.1l0,0 c0.9,0.4,1.4,1.4,1.1,2.4l0,0c-0.3,0.7-1,1.2-1.7,1.2l0,0C141,353.2,140.7,353.2,140.5,353.1z M131.9,349.9 c-0.9-0.3-1.4-1.4-1.1-2.4l0,0c0.3-1,1.4-1.5,2.4-1.1l0,0c0.9,0.3,1.4,1.4,1.1,2.4l0,0c-0.3,0.7-1,1.2-1.7,1.2l0,0 C132.4,350,132.1,349.9,131.9,349.9z M123.3,346.8L123.3,346.8L123.3,346.8c-1-0.3-1.5-1.4-1.1-2.3l0,0c0.3-1,1.4-1.5,2.3-1.1 l0,0c1,0.3,1.5,1.4,1.1,2.3l0,0c-0.3,0.8-1,1.3-1.7,1.2l0,0C123.7,346.9,123.5,346.9,123.3,346.8z M114.6,344L114.6,344 L114.6,344c-1-0.3-1.5-1.3-1.2-2.3l0,0c0.3-1,1.3-1.5,2.3-1.2l0,0c1,0.3,1.5,1.3,1.2,2.3l0,0c-0.2,0.8-1,1.3-1.8,1.3l0,0 C115,344.1,114.8,344,114.6,344z M105.9,341.5L105.9,341.5L105.9,341.5c-1-0.3-1.6-1.3-1.3-2.3l0,0c0.3-1,1.3-1.6,2.3-1.3l0,0 c1,0.3,1.6,1.3,1.3,2.2l0,0c-0.2,0.8-1,1.4-1.8,1.4l0,0C106.2,341.5,106,341.5,105.9,341.5z M97,339.3c-1-0.2-1.6-1.2-1.4-2.2 l0,0c0.2-1,1.2-1.6,2.2-1.4l0,0c1,0.2,1.6,1.2,1.4,2.2l0,0c-0.2,0.9-0.9,1.4-1.8,1.4l0,0C97.3,339.4,97.2,339.4,97,339.3z M22.6,337.2c-0.2-1,0.5-2,1.5-2.1l0,0c1-0.2,1.9,0.5,2.1,1.5l0,0c0.2,1-0.5,2-1.5,2.1l0,0c-0.1,0-0.2,0-0.3,0l0,0 C23.5,338.8,22.8,338.1,22.6,337.2z M88.1,337.6L88.1,337.6L88.1,337.6c-1-0.2-1.7-1.1-1.5-2.1l0,0c0.2-1,1.1-1.7,2.1-1.5l0,0 c1,0.2,1.7,1.1,1.5,2.1l0,0c-0.2,0.9-0.9,1.5-1.8,1.5l0,0C88.3,337.7,88.2,337.6,88.1,337.6z M31.7,335.7c-0.1-1,0.6-1.9,1.6-2.1 l0,0c1-0.1,1.9,0.6,2.1,1.6l0,0c0.1,1-0.6,1.9-1.6,2.1l0,0c-0.1,0-0.2,0-0.3,0l0,0C32.6,337.3,31.8,336.6,31.7,335.7z M79.1,336.4c-1-0.1-1.7-1-1.6-2l0,0c0.1-1,1-1.7,2-1.6l0,0c1,0.1,1.7,1,1.6,2l0,0c-0.1,0.9-0.9,1.6-1.8,1.6l0,0 C79.2,336.4,79.2,336.4,79.1,336.4z M40.8,334.6c-0.1-1,0.7-1.9,1.7-2h0c1-0.1,1.9,0.6,2,1.7l0,0c0.1,1-0.6,1.9-1.7,2l0,0 c-0.1,0-0.1,0-0.2,0l0,0C41.7,336.2,40.9,335.5,40.8,334.6z M70.1,335.6L70.1,335.6L70.1,335.6c-1-0.1-1.8-0.9-1.7-1.9l0,0 c0.1-1,0.9-1.8,1.9-1.7l0,0c1,0.1,1.8,0.9,1.7,1.9l0,0c-0.1,1-0.9,1.7-1.8,1.7l0,0C70.1,335.6,70.1,335.6,70.1,335.6z M50,333.8 c0-1,0.7-1.9,1.7-1.9l0,0c1,0,1.9,0.7,1.9,1.8l0,0c0,1-0.7,1.9-1.8,1.9l0,0c0,0-0.1,0-0.1,0l0,0C50.8,335.6,50,334.8,50,333.8z M61,335.4c-1,0-1.8-0.8-1.8-1.8l0,0c0-1,0.8-1.8,1.8-1.8l0,0c1,0,1.8,0.8,1.8,1.8l0,0C62.8,334.5,62,335.4,61,335.4L61,335.4 L61,335.4z"/></g><g id="change3_8"><path fill="#2f4d6b" d="M234.7,387.6c-1-0.1-1.6-1-1.5-2l0,0c0.1-1,1-1.6,2-1.5l0,0c1,0.1,1.6,1,1.5,2l0,0 c-0.1,0.9-0.9,1.5-1.7,1.5l0,0C234.9,387.6,234.8,387.6,234.7,387.6z M225.8,386.1c-1-0.2-1.6-1.1-1.4-2l0,0c0.2-1,1.1-1.6,2-1.4 l0,0c1,0.2,1.6,1.1,1.4,2l0,0c-0.2,0.8-0.9,1.4-1.7,1.4l0,0C226,386.2,225.9,386.2,225.8,386.1z M217,384.4 c-0.9-0.2-1.6-1.1-1.4-2.1l0,0c0.2-1,1.1-1.6,2.1-1.4l0,0c0.9,0.2,1.6,1.1,1.4,2.1l0,0c-0.2,0.8-0.9,1.4-1.7,1.4l0,0 C217.2,384.5,217.1,384.4,217,384.4z M208.2,382.4L208.2,382.4L208.2,382.4c-0.9-0.2-1.5-1.2-1.3-2.1l0,0 c0.2-0.9,1.2-1.5,2.1-1.3l0,0c0.9,0.2,1.5,1.2,1.3,2.1l0,0c-0.2,0.8-0.9,1.3-1.7,1.3l0,0C208.5,382.5,208.3,382.5,208.2,382.4z M199.5,380.2c-0.9-0.3-1.5-1.2-1.2-2.2l0,0c0.2-0.9,1.2-1.5,2.2-1.2l0,0c0.9,0.2,1.5,1.2,1.2,2.2l0,0c-0.2,0.8-0.9,1.3-1.7,1.3 l0,0C199.8,380.3,199.6,380.3,199.5,380.2z M190.8,377.8c-0.9-0.3-1.5-1.3-1.2-2.2l0,0c0.3-0.9,1.3-1.5,2.2-1.2l0,0 c0.9,0.3,1.5,1.2,1.2,2.2l0,0c-0.2,0.8-0.9,1.3-1.7,1.3l0,0C191.2,377.9,191,377.8,190.8,377.8z M182.2,375.1L182.2,375.1 L182.2,375.1c-0.9-0.3-1.4-1.3-1.1-2.2l0,0c0.3-0.9,1.3-1.4,2.2-1.1l0,0c0.9,0.3,1.4,1.3,1.1,2.2l0,0c-0.2,0.7-0.9,1.2-1.7,1.2 l0,0C182.6,375.2,182.4,375.2,182.2,375.1z M173.7,372.3L173.7,372.3L173.7,372.3c-0.9-0.3-1.4-1.3-1.1-2.2l0,0 c0.3-0.9,1.3-1.4,2.2-1.1l0,0c0.9,0.3,1.4,1.3,1.1,2.2l0,0c-0.2,0.7-0.9,1.2-1.7,1.2l0,0C174.1,372.4,173.9,372.4,173.7,372.3z M165.2,369.3c-0.9-0.3-1.4-1.3-1.1-2.2l0,0c0.3-0.9,1.3-1.4,2.2-1.1l0,0c0.9,0.3,1.4,1.3,1.1,2.2l0,0c-0.3,0.7-0.9,1.2-1.7,1.2 l0,0C165.6,369.4,165.4,369.4,165.2,369.3z M156.8,366.3c-0.9-0.3-1.4-1.4-1-2.3l0,0c0.3-0.9,1.3-1.4,2.3-1l0,0 c0.9,0.3,1.4,1.3,1,2.3l0,0c-0.3,0.7-0.9,1.1-1.7,1.1l0,0C157.2,366.4,157,366.3,156.8,366.3z M148.4,363.1 c-0.9-0.3-1.4-1.4-1-2.3l0,0c0.3-0.9,1.4-1.4,2.3-1l0,0c0.9,0.3,1.4,1.4,1,2.3l0,0c-0.3,0.7-0.9,1.1-1.6,1.1l0,0 C148.8,363.2,148.6,363.2,148.4,363.1z M140,360L140,360L140,360c-0.9-0.3-1.4-1.4-1-2.3l0,0c0.3-0.9,1.4-1.4,2.3-1l0,0 c0.9,0.3,1.4,1.4,1,2.3l0,0c-0.3,0.7-0.9,1.1-1.6,1.1l0,0C140.5,360.1,140.2,360,140,360z M131.7,356.9c-0.9-0.3-1.4-1.3-1.1-2.2 l0,0c0.3-0.9,1.3-1.4,2.2-1.1l0,0c0.9,0.3,1.4,1.3,1.1,2.2l0,0c-0.3,0.7-0.9,1.2-1.6,1.2l0,0C132.1,357,131.9,357,131.7,356.9z M123.2,354L123.2,354L123.2,354c-0.9-0.3-1.4-1.3-1.1-2.2l0,0c0.3-0.9,1.3-1.4,2.2-1.1l0,0c0.9,0.3,1.4,1.3,1.1,2.2l0,0 c-0.2,0.7-0.9,1.2-1.7,1.2l0,0C123.6,354.1,123.4,354,123.2,354z M114.8,351.2c-0.9-0.3-1.5-1.3-1.2-2.2l0,0 c0.3-0.9,1.3-1.4,2.2-1.2l0,0c0.9,0.3,1.4,1.3,1.2,2.2l0,0c-0.2,0.8-0.9,1.2-1.7,1.2l0,0C115.1,351.3,114.9,351.3,114.8,351.2z M106.2,348.8c-0.9-0.2-1.5-1.2-1.2-2.2l0,0c0.3-0.9,1.2-1.5,2.2-1.2l0,0c0.9,0.3,1.5,1.2,1.2,2.2l0,0c-0.2,0.8-0.9,1.3-1.7,1.3 l0,0C106.5,348.8,106.4,348.8,106.2,348.8z M97.6,346.6c-0.9-0.2-1.5-1.1-1.3-2.1l0,0c0.2-0.9,1.1-1.5,2.1-1.3l0,0 c0.9,0.2,1.5,1.2,1.3,2.1l0,0c-0.2,0.8-0.9,1.4-1.7,1.4l0,0C97.9,346.7,97.8,346.7,97.6,346.6z M25.2,343.7c-0.2-1,0.5-1.9,1.4-2 l0,0c1-0.2,1.9,0.5,2,1.4l0,0c0.2,1-0.5,1.9-1.4,2l0,0c-0.1,0-0.2,0-0.3,0l0,0C26.1,345.2,25.3,344.6,25.2,343.7z M88.9,344.9 L88.9,344.9L88.9,344.9c-1-0.2-1.6-1.1-1.4-2l0,0c0.2-0.9,1.1-1.6,2-1.4l0,0c1,0.2,1.6,1.1,1.4,2l0,0c-0.2,0.9-0.9,1.5-1.7,1.5 l0,0C89.2,344.9,89.1,344.9,88.9,344.9z M34,342.3c-0.1-1,0.6-1.8,1.5-2l0,0c1-0.1,1.8,0.6,2,1.5l0,0c0.1,1-0.6,1.8-1.5,2l0,0 c-0.1,0-0.1,0-0.2,0l0,0C34.9,343.9,34.1,343.2,34,342.3z M80.2,343.6c-1-0.1-1.6-1-1.5-2l0,0c0.1-1,1-1.6,2-1.5l0,0 c1,0.1,1.6,1,1.5,1.9l0,0c-0.1,0.9-0.9,1.5-1.7,1.5l0,0C80.3,343.6,80.3,343.6,80.2,343.6z M42.9,341.3c-0.1-1,0.6-1.8,1.6-1.9 l0,0c1-0.1,1.8,0.6,1.9,1.6l0,0c0.1,1-0.6,1.8-1.6,1.9l0,0c0,0-0.1,0-0.1,0l0,0C43.8,343,43,342.3,42.9,341.3z M71.4,342.8 c-1-0.1-1.7-0.9-1.6-1.9l0,0c0.1-1,0.9-1.7,1.9-1.6l0,0c1,0.1,1.7,0.9,1.6,1.9l0,0c-0.1,0.9-0.8,1.6-1.7,1.6l0,0 C71.5,342.8,71.4,342.8,71.4,342.8z M51.9,340.7c0-1,0.7-1.8,1.7-1.8l0,0c1,0,1.8,0.7,1.8,1.7l0,0c0,1-0.7,1.8-1.7,1.8l0,0 c0,0,0,0-0.1,0l0,0C52.7,342.4,51.9,341.7,51.9,340.7z M62.5,342.4c-1,0-1.7-0.8-1.7-1.8l0,0c0-1,0.8-1.7,1.8-1.7l0,0 c1,0,1.7,0.8,1.7,1.8l0,0C64.3,341.6,63.5,342.4,62.5,342.4L62.5,342.4C62.6,342.4,62.6,342.4,62.5,342.4z"/></g><g id="change3_4"><path fill="#2f4d6b" d="M197.6,386L197.6,386L197.6,386c-0.9-0.2-1.4-1.1-1.2-2l0,0c0.2-0.9,1.1-1.4,2-1.2l0,0 c0.9,0.2,1.4,1.1,1.2,2l0,0c-0.2,0.8-0.9,1.3-1.6,1.3l0,0C197.9,386.1,197.7,386.1,197.6,386z M189.2,383.7L189.2,383.7 L189.2,383.7c-0.9-0.2-1.4-1.2-1.1-2.1l0,0c0.3-0.9,1.2-1.4,2.1-1.1l0,0c0.9,0.2,1.4,1.2,1.1,2.1l0,0c-0.2,0.7-0.9,1.2-1.6,1.2 l0,0C189.5,383.8,189.3,383.8,189.2,383.7z M180.8,381.2c-0.9-0.3-1.4-1.2-1.1-2.1l0,0c0.3-0.9,1.2-1.4,2.1-1.1l0,0 c0.9,0.3,1.4,1.2,1.1,2.1l0,0c-0.2,0.7-0.9,1.2-1.6,1.2l0,0C181.1,381.3,180.9,381.3,180.8,381.2z M172.4,378.6 c-0.9-0.3-1.4-1.2-1.1-2.1l0,0c0.3-0.9,1.2-1.4,2.1-1.1l0,0c0.9,0.3,1.4,1.2,1.1,2.1l0,0c-0.2,0.7-0.9,1.1-1.6,1.1l0,0 C172.8,378.6,172.6,378.6,172.4,378.6z M164.2,375.7c-0.9-0.3-1.3-1.3-1-2.1l0,0c0.3-0.9,1.3-1.3,2.1-1l0,0 c0.9,0.3,1.3,1.3,1,2.1l0,0c-0.2,0.7-0.9,1.1-1.6,1.1l0,0C164.6,375.8,164.4,375.8,164.2,375.7z M156,372.8 c-0.9-0.3-1.3-1.3-1-2.1l0,0c0.3-0.9,1.3-1.3,2.1-1l0,0c0.9,0.3,1.3,1.3,1,2.1l0,0c-0.2,0.7-0.9,1.1-1.6,1.1l0,0 C156.3,372.9,156.1,372.9,156,372.8z M147.8,369.8c-0.9-0.3-1.3-1.3-1-2.2l0,0c0.3-0.9,1.3-1.3,2.1-1l0,0c0.9,0.3,1.3,1.3,1,2.1 l0,0c-0.2,0.7-0.9,1.1-1.6,1.1l0,0C148.1,369.9,148,369.9,147.8,369.8z M139.6,366.9c-0.9-0.3-1.3-1.3-1-2.1l0,0 c0.3-0.9,1.3-1.3,2.1-1l0,0c0.9,0.3,1.3,1.3,1,2.1l0,0c-0.2,0.7-0.9,1.1-1.6,1.1l0,0C140,367,139.8,366.9,139.6,366.9z M131.4,363.9c-0.9-0.3-1.3-1.3-1-2.1l0,0c0.3-0.9,1.3-1.3,2.1-1l0,0c0.9,0.3,1.3,1.3,1,2.1l0,0c-0.2,0.7-0.9,1.1-1.6,1.1l0,0 C131.8,364,131.6,364,131.4,363.9z M123.2,361.1c-0.9-0.3-1.3-1.2-1.1-2.1l0,0c0.3-0.9,1.2-1.4,2.1-1.1l0,0 c0.9,0.3,1.4,1.2,1.1,2.1l0,0c-0.2,0.7-0.9,1.1-1.6,1.1l0,0C123.5,361.2,123.4,361.2,123.2,361.1z M114.9,358.4 c-0.9-0.3-1.4-1.2-1.1-2.1l0,0c0.3-0.9,1.2-1.4,2.1-1.1l0,0c0.9,0.3,1.4,1.2,1.1,2.1l0,0c-0.2,0.7-0.9,1.2-1.6,1.2l0,0 C115.2,358.5,115.1,358.5,114.9,358.4z M106.6,356c-0.9-0.2-1.4-1.2-1.2-2.1l0,0c0.2-0.9,1.2-1.4,2.1-1.2l0,0 c0.9,0.2,1.4,1.2,1.2,2.1l0,0c-0.2,0.7-0.9,1.2-1.6,1.2l0,0C106.9,356.1,106.8,356.1,106.6,356z M98.2,353.9 C98.2,353.9,98.2,353.9,98.2,353.9L98.2,353.9c-0.9-0.2-1.5-1.1-1.3-2l0,0c0.2-0.9,1.1-1.5,2-1.3l0,0c0.9,0.2,1.5,1.1,1.3,2l0,0 c-0.2,0.8-0.9,1.3-1.6,1.3l0,0C98.5,354,98.4,354,98.2,353.9z M19.2,351.8c-0.2-0.9,0.4-1.8,1.3-2v0c0.9-0.2,1.8,0.4,2,1.3l0,0 c0.2,0.9-0.4,1.8-1.3,2l0,0c-0.1,0-0.2,0-0.3,0l0,0C20,353.1,19.3,352.6,19.2,351.8z M89.8,352.2c-0.9-0.2-1.5-1-1.3-1.9l0,0 c0.2-0.9,1-1.5,1.9-1.3l0,0c0.9,0.2,1.5,1,1.3,1.9l0,0c-0.1,0.8-0.9,1.4-1.6,1.4l0,0C90,352.2,89.9,352.2,89.8,352.2z M27.7,350.2c-0.1-0.9,0.5-1.8,1.4-1.9l0,0c0.9-0.1,1.8,0.5,1.9,1.4l0,0c0.1,0.9-0.5,1.8-1.4,1.9l0,0l0,0l0,0c-0.1,0-0.2,0-0.2,0 l0,0C28.6,351.6,27.9,351,27.7,350.2z M81.3,350.8L81.3,350.8L81.3,350.8c-0.9-0.1-1.6-1-1.4-1.9l0,0c0.1-0.9,1-1.6,1.9-1.4l0,0 c0.9,0.1,1.6,1,1.4,1.9l0,0c-0.1,0.8-0.8,1.4-1.7,1.4l0,0C81.4,350.9,81.3,350.9,81.3,350.8z M36.4,349c-0.1-0.9,0.6-1.7,1.5-1.8 l0,0c0.9-0.1,1.7,0.6,1.8,1.5l0,0c0.1,0.9-0.6,1.7-1.5,1.8l0,0c-0.1,0-0.1,0-0.2,0l0,0C37.2,350.5,36.5,349.9,36.4,349z M72.7,349.9L72.7,349.9L72.7,349.9c-0.9-0.1-1.6-0.9-1.5-1.8l0,0c0.1-0.9,0.9-1.6,1.8-1.5l0,0c0.9,0.1,1.6,0.9,1.5,1.8l0,0 c-0.1,0.9-0.8,1.5-1.7,1.5l0,0C72.8,349.9,72.7,349.9,72.7,349.9z M45,348.2c-0.1-0.9,0.6-1.7,1.6-1.8l0,0 c0.9-0.1,1.7,0.6,1.8,1.6l0,0c0.1,0.9-0.6,1.7-1.6,1.8l0,0c0,0-0.1,0-0.1,0l0,0C45.8,349.7,45.1,349.1,45,348.2z M64.1,349.4 c-0.9,0-1.6-0.8-1.6-1.7l0,0c0-0.9,0.8-1.7,1.7-1.6l0,0c0.9,0,1.6,0.8,1.6,1.7l0,0C65.8,348.7,65,349.4,64.1,349.4L64.1,349.4 C64.1,349.4,64.1,349.4,64.1,349.4z M53.8,347.7c0-0.9,0.7-1.7,1.6-1.7l0,0c0.9,0,1.7,0.7,1.7,1.6l0,0c0,0.9-0.7,1.7-1.6,1.7l0,0 c0,0,0,0,0,0l0,0C54.5,349.4,53.8,348.6,53.8,347.7z"/></g><g id="change3_1"><path fill="#2f4d6b" d="M179.3,387.3C179.3,387.3,179.3,387.3,179.3,387.3L179.3,387.3c-0.8-0.2-1.3-1.1-1.1-2l0,0 c0.2-0.8,1.1-1.3,2-1.1l0,0c0.8,0.3,1.3,1.1,1.1,2l0,0c-0.2,0.7-0.8,1.1-1.5,1.1l0,0C179.6,387.4,179.5,387.3,179.3,387.3z M171.2,384.8c-0.8-0.3-1.3-1.2-1-2l0,0c0.3-0.8,1.2-1.3,2-1l0,0c0.8,0.3,1.3,1.2,1,2l0,0c-0.2,0.7-0.8,1.1-1.5,1.1l0,0 C171.5,384.9,171.4,384.8,171.2,384.8z M163.1,382.1c-0.8-0.3-1.3-1.2-1-2l0,0c0.3-0.8,1.2-1.3,2-1l0,0c0.8,0.3,1.3,1.2,1,2l0,0 c-0.2,0.7-0.8,1.1-1.5,1.1l0,0C163.5,382.2,163.3,382.2,163.1,382.1z M155.1,379.3c-0.8-0.3-1.3-1.2-1-2l0,0c0.3-0.8,1.2-1.3,2-1 l0,0c0.8,0.3,1.3,1.2,1,2l0,0c-0.2,0.7-0.8,1.1-1.5,1.1l0,0C155.5,379.4,155.3,379.4,155.1,379.3z M147.1,376.5L147.1,376.5 L147.1,376.5c-0.8-0.3-1.3-1.2-1-2l0,0c0.3-0.8,1.2-1.3,2-1l0,0c0.8,0.3,1.3,1.2,1,2l0,0c-0.2,0.6-0.8,1.1-1.5,1.1l0,0 C147.5,376.6,147.3,376.6,147.1,376.5z M139.1,373.7C139.1,373.7,139.1,373.7,139.1,373.7L139.1,373.7c-0.8-0.3-1.3-1.2-1-2l0,0 c0.3-0.8,1.2-1.3,2-1l0,0c0.8,0.3,1.3,1.2,1,2l0,0c-0.2,0.7-0.8,1.1-1.5,1.1l0,0C139.5,373.8,139.3,373.8,139.1,373.7z M131.1,370.9c-0.8-0.3-1.3-1.2-1-2l0,0c0.3-0.8,1.2-1.3,2-1l0,0c0.8,0.3,1.3,1.2,1,2l0,0c-0.2,0.7-0.8,1.1-1.5,1.1l0,0 C131.5,371,131.3,371,131.1,370.9z M123.1,368.2c-0.8-0.3-1.3-1.2-1-2l0,0c0.3-0.8,1.2-1.3,2-1l0,0c0.8,0.3,1.3,1.2,1,2l0,0 c-0.2,0.7-0.8,1.1-1.5,1.1l0,0C123.5,368.3,123.3,368.3,123.1,368.2z M115.1,365.6c-0.8-0.3-1.3-1.1-1.1-2l0,0 c0.2-0.8,1.1-1.3,2-1.1l0,0c0.8,0.3,1.3,1.1,1.1,2l0,0c-0.2,0.7-0.8,1.1-1.5,1.1l0,0C115.4,365.7,115.2,365.7,115.1,365.6z M107,363.3c-0.8-0.2-1.4-1.1-1.1-1.9l0,0c0.2-0.8,1.1-1.3,1.9-1.1l0,0c0.8,0.2,1.4,1.1,1.1,1.9l0,0c-0.2,0.7-0.8,1.2-1.5,1.2 l0,0C107.3,363.4,107.1,363.3,107,363.3z M98.9,361.2c-0.9-0.2-1.4-1-1.2-1.9l0,0c0.2-0.9,1.1-1.4,1.9-1.2l0,0 c0.9,0.2,1.4,1.1,1.2,1.9l0,0c-0.2,0.7-0.8,1.2-1.5,1.2l0,0C99.1,361.3,99,361.3,98.9,361.2z M90.6,359.5c-0.9-0.2-1.4-1-1.3-1.9 l0,0c0.2-0.9,1-1.4,1.9-1.3l0,0c0.9,0.2,1.4,1,1.3,1.9l0,0c-0.1,0.8-0.8,1.3-1.6,1.3l0,0C90.8,359.5,90.7,359.5,90.6,359.5z M22,358.2c-0.2-0.9,0.4-1.7,1.3-1.8v0c0.9-0.2,1.7,0.4,1.8,1.3l0,0c0.2,0.9-0.4,1.7-1.3,1.8l0,0l0,0l0,0c-0.1,0-0.2,0-0.3,0l0,0 C22.8,359.5,22.1,358.9,22,358.2z M30.3,356.8c-0.1-0.9,0.5-1.7,1.4-1.8l0,0c0.9-0.1,1.7,0.5,1.8,1.4l0,0 c0.1,0.9-0.5,1.7-1.4,1.8l0,0c0,0,0,0,0,0l0,0c-0.1,0-0.1,0-0.2,0l0,0C31.1,358.1,30.4,357.6,30.3,356.8z M82.4,358.1L82.4,358.1 L82.4,358.1c-0.9-0.1-1.5-0.9-1.3-1.8l0,0c0.1-0.9,0.9-1.5,1.8-1.4l0,0c0.9,0.1,1.5,0.9,1.4,1.8l0,0c-0.1,0.8-0.8,1.4-1.6,1.4 l0,0C82.5,358.1,82.4,358.1,82.4,358.1z M38.7,355.7c-0.1-0.9,0.6-1.7,1.4-1.7l0,0c0.9-0.1,1.6,0.6,1.7,1.4l0,0 c0.1,0.9-0.6,1.6-1.4,1.7l0,0c0,0-0.1,0-0.1,0l0,0C39.5,357.2,38.8,356.5,38.7,355.7z M74,357.1c-0.9-0.1-1.5-0.9-1.4-1.7l0,0 c0.1-0.9,0.9-1.5,1.7-1.4l0,0c0.9,0.1,1.5,0.9,1.4,1.7l0,0c-0.1,0.8-0.8,1.4-1.6,1.4l0,0C74.1,357.1,74.1,357.1,74,357.1z M47.2,355c0-0.9,0.6-1.6,1.5-1.7l0,0c0.9,0,1.6,0.6,1.7,1.5l0,0c0,0.9-0.6,1.6-1.5,1.7l0,0c0,0,0,0,0,0l0,0c0,0-0.1,0-0.1,0l0,0 C47.9,356.5,47.2,355.9,47.2,355z M64.1,354.8c0-0.9,0.8-1.6,1.7-1.5l0,0c0.9,0,1.6,0.8,1.5,1.7l0,0c0,0.9-0.8,1.6-1.7,1.5l0,0 l0,0l0,0C64.8,356.5,64.1,355.7,64.1,354.8z M55.7,354.7c0-0.9,0.7-1.6,1.6-1.6l0,0c0.9,0,1.6,0.7,1.6,1.6l0,0 c0,0.9-0.7,1.6-1.6,1.6l0,0C56.4,356.3,55.7,355.6,55.7,354.7z"/></g><g id="change3_5"><path fill="#2f4d6b" d="M154.3,385.9c-0.8-0.3-1.2-1.1-0.9-1.9l0,0c0.3-0.8,1.1-1.2,1.9-0.9l0,0c0.8,0.3,1.2,1.1,0.9,1.9l0,0 c-0.2,0.6-0.8,1-1.4,1l0,0C154.6,386,154.4,385.9,154.3,385.9z M146.5,383.2L146.5,383.2L146.5,383.2c-0.8-0.3-1.2-1.1-0.9-1.9 l0,0c0.3-0.8,1.1-1.2,1.9-0.9l0,0c0.8,0.3,1.2,1.1,0.9,1.9l0,0c-0.2,0.6-0.8,1-1.4,1l0,0C146.8,383.3,146.6,383.3,146.5,383.2z M138.7,380.5c-0.8-0.3-1.2-1.1-0.9-1.9l0,0c0.3-0.8,1.1-1.2,1.9-0.9l0,0c0.8,0.3,1.2,1.1,0.9,1.9l0,0c-0.2,0.6-0.8,1-1.4,1l0,0 C139,380.6,138.9,380.6,138.7,380.5z M130.9,377.9c-0.8-0.3-1.2-1.1-0.9-1.9l0,0c0.3-0.8,1.1-1.2,1.9-0.9l0,0 c0.8,0.3,1.2,1.1,0.9,1.9l0,0c-0.2,0.6-0.8,1-1.4,1l0,0C131.2,377.9,131.1,377.9,130.9,377.9z M123.1,375.3L123.1,375.3 L123.1,375.3c-0.8-0.3-1.2-1.1-1-1.9l0,0c0.3-0.8,1.1-1.2,1.9-1l0,0c0.8,0.3,1.2,1.1,1,1.9l0,0c-0.2,0.6-0.8,1-1.4,1l0,0 C123.4,375.4,123.3,375.3,123.1,375.3z M115.3,372.8L115.3,372.8L115.3,372.8c-0.8-0.2-1.2-1.1-1-1.9l0,0c0.2-0.8,1.1-1.2,1.9-1 l0,0c0.8,0.2,1.2,1.1,1,1.9l0,0c-0.2,0.7-0.8,1.1-1.4,1.1l0,0C115.6,372.9,115.4,372.9,115.3,372.8z M107.4,370.6 c-0.8-0.2-1.3-1-1-1.8l0,0c0.2-0.8,1-1.3,1.8-1.1l0,0c0.8,0.2,1.3,1,1.1,1.8l0,0c-0.2,0.7-0.8,1.1-1.5,1.1l0,0 C107.7,370.6,107.5,370.6,107.4,370.6z M99.5,368.5c-0.8-0.2-1.3-1-1.1-1.8l0,0c0.2-0.8,1-1.3,1.8-1.1l0,0c0.8,0.2,1.3,1,1.1,1.8 l0,0c-0.2,0.7-0.8,1.2-1.5,1.2l0,0C99.7,368.6,99.6,368.6,99.5,368.5z M91.5,366.8c-0.8-0.2-1.4-1-1.2-1.8l0,0 c0.2-0.8,1-1.3,1.8-1.2l0,0c0.8,0.2,1.3,1,1.2,1.8l0,0c-0.1,0.7-0.8,1.2-1.5,1.2l0,0C91.7,366.8,91.6,366.8,91.5,366.8z M24.8,364.6c-0.1-0.8,0.4-1.6,1.3-1.7l0,0c0.8-0.1,1.6,0.4,1.7,1.3l0,0c0.1,0.8-0.4,1.6-1.2,1.7l0,0c-0.1,0-0.2,0-0.2,0l0,0 C25.5,365.9,24.9,365.3,24.8,364.6z M83.4,365.4c-0.8-0.1-1.4-0.9-1.3-1.7l0,0c0.1-0.8,0.9-1.4,1.7-1.3l0,0 c0.8,0.1,1.4,0.9,1.3,1.7l0,0c-0.1,0.7-0.8,1.3-1.5,1.3l0,0C83.6,365.4,83.5,365.4,83.4,365.4z M32.9,363.4 c-0.1-0.8,0.5-1.6,1.3-1.7l0,0c0.8-0.1,1.6,0.5,1.7,1.3l0,0c0.1,0.8-0.5,1.6-1.3,1.7l0,0l0,0l0,0c-0.1,0-0.1,0-0.2,0l0,0 C33.7,364.7,33,364.1,32.9,363.4z M75.3,364.3c-0.8-0.1-1.4-0.8-1.3-1.7l0,0c0.1-0.8,0.8-1.4,1.7-1.3l0,0 c0.8,0.1,1.4,0.8,1.3,1.7l0,0c-0.1,0.8-0.7,1.3-1.5,1.3l0,0C75.5,364.3,75.4,364.3,75.3,364.3z M41.1,362.5 c-0.1-0.8,0.6-1.6,1.4-1.6l0,0c0.8-0.1,1.6,0.6,1.6,1.4l0,0c0.1,0.8-0.6,1.6-1.4,1.6l0,0c0,0-0.1,0-0.1,0l0,0 C41.8,363.9,41.2,363.3,41.1,362.5z M67.2,363.6c-0.8-0.1-1.5-0.8-1.4-1.6l0,0c0-0.8,0.8-1.5,1.6-1.4l0,0c0.8,0,1.5,0.8,1.4,1.6 l0,0C68.8,363,68.1,363.6,67.2,363.6L67.2,363.6C67.3,363.6,67.2,363.6,67.2,363.6z M49.3,362c0-0.8,0.6-1.5,1.5-1.6l0,0 c0.8,0,1.5,0.6,1.6,1.5l0,0c0,0.8-0.6,1.5-1.5,1.6l0,0c0,0,0,0,0,0l0,0C50,363.4,49.4,362.8,49.3,362z M59.1,363.3 c-0.8,0-1.5-0.7-1.5-1.5l0,0c0-0.8,0.7-1.5,1.5-1.5l0,0c0.8,0,1.5,0.7,1.5,1.5l0,0C60.6,362.7,59.9,363.3,59.1,363.3L59.1,363.3 C59.1,363.3,59.1,363.3,59.1,363.3z"/></g><g id="change3_6"><path fill="#2f4d6b" d="M138.3,387.3c-0.7-0.2-1.1-1.1-0.9-1.8l0,0c0.2-0.7,1.1-1.1,1.8-0.9l0,0c0.7,0.2,1.1,1,0.9,1.8l0,0 c-0.2,0.6-0.8,1-1.3,1l0,0C138.6,387.4,138.4,387.4,138.3,387.3z M130.7,384.8c-0.7-0.2-1.1-1-0.9-1.8l0,0 c0.2-0.7,1.1-1.1,1.8-0.9v0c0.7,0.2,1.1,1,0.9,1.8l0,0c-0.2,0.6-0.8,1-1.4,1l0,0C131,384.9,130.8,384.8,130.7,384.8z M123.1,382.3L123.1,382.3L123.1,382.3c-0.7-0.2-1.2-1-0.9-1.8l0,0c0.2-0.7,1-1.2,1.8-0.9h0c0.7,0.2,1.2,1,0.9,1.8l0,0 c-0.2,0.6-0.8,1-1.4,1l0,0C123.4,382.4,123.2,382.4,123.1,382.3z M115.5,380L115.5,380L115.5,380c-0.8-0.2-1.2-1-1-1.8l0,0 c0.2-0.8,1-1.2,1.8-1l0,0c0.8,0.2,1.2,1,1,1.8l0,0c-0.2,0.6-0.7,1-1.4,1l0,0C115.7,380,115.6,380,115.5,380z M107.8,377.8 c-0.8-0.2-1.2-1-1-1.7l0,0c0.2-0.8,1-1.2,1.7-1l0,0c0.8,0.2,1.2,1,1,1.7l0,0c-0.2,0.6-0.8,1-1.4,1l0,0 C108,377.8,107.9,377.8,107.8,377.8z M100.1,375.8c-0.8-0.2-1.2-0.9-1-1.7l0,0c0.2-0.8,0.9-1.2,1.7-1l0,0c0.8,0.2,1.2,0.9,1,1.7 l0,0c-0.2,0.7-0.7,1.1-1.4,1.1l0,0C100.3,375.9,100.2,375.8,100.1,375.8z M92.3,374.1c-0.8-0.2-1.3-0.9-1.1-1.7l0,0 c0.2-0.8,0.9-1.3,1.7-1.1l0,0c0.8,0.2,1.3,0.9,1.1,1.7l0,0c-0.1,0.7-0.7,1.1-1.4,1.1l0,0C92.5,374.1,92.4,374.1,92.3,374.1z M19.7,372.5c-0.1-0.8,0.4-1.5,1.1-1.7l0,0c0.8-0.1,1.5,0.4,1.7,1.1l0,0c0.1,0.8-0.4,1.5-1.1,1.7l0,0l0,0l0,0c-0.1,0-0.2,0-0.3,0 l0,0C20.4,373.6,19.8,373.1,19.7,372.5z M84.5,372.6C84.5,372.6,84.5,372.6,84.5,372.6L84.5,372.6c-0.8-0.1-1.3-0.9-1.2-1.6l0,0 c0.1-0.8,0.9-1.3,1.6-1.2v0c0.8,0.1,1.3,0.9,1.2,1.6l0,0c-0.1,0.7-0.7,1.2-1.4,1.2l0,0C84.7,372.7,84.6,372.7,84.5,372.6z M27.6,371.1c-0.1-0.8,0.4-1.5,1.2-1.6l0,0c0.8-0.1,1.5,0.4,1.6,1.2l0,0c0.1,0.8-0.4,1.5-1.2,1.6l0,0c-0.1,0-0.1,0-0.2,0l0,0 C28.3,372.3,27.7,371.8,27.6,371.1z M76.7,371.5L76.7,371.5L76.7,371.5c-0.8-0.1-1.3-0.8-1.2-1.6l0,0c0.1-0.8,0.8-1.3,1.6-1.2 l0,0c0.8,0.1,1.3,0.8,1.2,1.6l0,0c-0.1,0.7-0.7,1.2-1.4,1.2l0,0C76.8,371.5,76.7,371.5,76.7,371.5z M35.5,370 c-0.1-0.8,0.5-1.5,1.3-1.6l0,0c0.8-0.1,1.5,0.5,1.6,1.3l0,0c0.1,0.8-0.5,1.5-1.3,1.6l0,0c-0.1,0-0.1,0-0.2,0l0,0 C36.2,371.3,35.6,370.8,35.5,370z M68.8,370.8c-0.8-0.1-1.4-0.7-1.3-1.5l0,0c0.1-0.8,0.7-1.4,1.5-1.3l0,0 c0.8,0.1,1.4,0.7,1.3,1.5l0,0c-0.1,0.7-0.7,1.3-1.4,1.3l0,0C68.9,370.8,68.8,370.8,68.8,370.8z M43.5,369.3 c0-0.8,0.6-1.5,1.3-1.5l0,0c0.8,0,1.5,0.5,1.5,1.3l0,0c0,0.8-0.5,1.5-1.3,1.5l0,0c0,0,0,0,0,0l0,0c0,0-0.1,0-0.1,0l0,0 C44.2,370.6,43.6,370.1,43.5,369.3z M60.9,370.4c-0.8,0-1.4-0.7-1.4-1.5l0,0c0-0.8,0.7-1.4,1.5-1.4l0,0c0.8,0,1.4,0.7,1.4,1.5 l0,0C62.3,369.7,61.7,370.4,60.9,370.4L60.9,370.4C60.9,370.4,60.9,370.4,60.9,370.4z M51.5,368.9c0-0.8,0.6-1.4,1.4-1.4l0,0 c0.8,0,1.4,0.6,1.4,1.4l0,0c0,0.8-0.6,1.4-1.4,1.5l0,0l0,0l0,0c0,0,0,0,0,0l0,0C52.2,370.3,51.5,369.7,51.5,368.9z"/></g><g id="change3_3"><path fill="#2f4d6b" d="M115.7,387.1c-0.7-0.2-1.1-1-0.9-1.7l0,0c0.2-0.7,1-1.1,1.7-0.9l0,0c0.7,0.2,1.1,1,0.9,1.7l0,0 c-0.2,0.6-0.7,1-1.3,1l0,0C115.9,387.2,115.8,387.2,115.7,387.1z M108.2,385L108.2,385L108.2,385c-0.7-0.2-1.1-0.9-0.9-1.6l0,0 c0.2-0.7,0.9-1.1,1.6-0.9v0c0.7,0.2,1.1,0.9,0.9,1.6l0,0c-0.2,0.6-0.7,1-1.3,1l0,0C108.5,385.1,108.4,385,108.2,385z M100.8,383.1c-0.7-0.2-1.2-0.9-1-1.6l0,0c0.2-0.7,0.9-1.2,1.6-1l0,0c0.7,0.2,1.1,0.9,1,1.6l0,0c-0.2,0.6-0.7,1-1.3,1l0,0 C101,383.1,100.9,383.1,100.8,383.1z M93.2,381.4c-0.7-0.2-1.2-0.9-1-1.6l0,0c0.2-0.7,0.9-1.2,1.6-1v0c0.7,0.2,1.2,0.9,1,1.6l0,0 c-0.1,0.6-0.7,1.1-1.3,1.1l0,0C93.4,381.4,93.3,381.4,93.2,381.4z M85.7,379.9c-0.7-0.1-1.2-0.8-1.1-1.5l0,0 c0.1-0.7,0.8-1.2,1.5-1.1l0,0c0.7,0.1,1.2,0.8,1.1,1.5l0,0c-0.1,0.7-0.7,1.1-1.3,1.1l0,0C85.8,380,85.7,379.9,85.7,379.9z M22.8,378.8c-0.1-0.7,0.4-1.4,1.1-1.5l0,0c0.7-0.1,1.4,0.4,1.5,1.1l0,0c0.1,0.7-0.4,1.4-1.1,1.5l0,0c-0.1,0-0.1,0-0.2,0l0,0 C23.5,379.9,22.9,379.5,22.8,378.8z M30.5,377.6c-0.1-0.7,0.4-1.4,1.1-1.5l0,0c0.7-0.1,1.4,0.4,1.5,1.2l0,0 c0.1,0.7-0.4,1.4-1.1,1.5l0,0c-0.1,0-0.1,0-0.2,0l0,0C31.1,378.8,30.6,378.3,30.5,377.6z M78.1,378.8L78.1,378.8L78.1,378.8 c-0.7-0.1-1.3-0.8-1.1-1.5l0,0c0.1-0.7,0.8-1.2,1.5-1.2v0c0.7,0.1,1.3,0.8,1.1,1.5l0,0c-0.1,0.7-0.7,1.2-1.3,1.2l0,0 C78.2,378.8,78.1,378.8,78.1,378.8z M38.2,376.7c-0.1-0.7,0.5-1.4,1.2-1.5l0,0c0.7-0.1,1.4,0.5,1.5,1.2l0,0 c0.1,0.7-0.5,1.4-1.2,1.4l0,0l0,0l0,0c0,0-0.1,0-0.1,0l0,0C38.8,378,38.2,377.4,38.2,376.7z M70.4,377.9L70.4,377.9L70.4,377.9 c-0.7-0.1-1.3-0.7-1.2-1.5l0,0c0.1-0.7,0.7-1.3,1.4-1.2l0,0c0.7,0.1,1.3,0.7,1.2,1.5l0,0c-0.1,0.7-0.7,1.2-1.3,1.2l0,0 C70.5,377.9,70.4,377.9,70.4,377.9z M45.9,376.2c0-0.7,0.5-1.4,1.3-1.4l0,0c0.7,0,1.4,0.5,1.4,1.3l0,0c0,0.7-0.5,1.4-1.3,1.4l0,0 c0,0,0,0-0.1,0l0,0C46.6,377.5,46,376.9,45.9,376.2z M62.7,377.4c-0.7,0-1.3-0.7-1.3-1.4l0,0c0-0.7,0.7-1.3,1.4-1.3l0,0 c0.7,0,1.3,0.7,1.3,1.4l0,0C64.1,376.9,63.5,377.4,62.7,377.4L62.7,377.4C62.8,377.4,62.7,377.4,62.7,377.4z M53.7,375.9 c0-0.7,0.6-1.3,1.3-1.3l0,0c0.7,0,1.3,0.6,1.3,1.3l0,0c0,0.7-0.6,1.3-1.3,1.3l0,0C54.3,377.3,53.7,376.7,53.7,375.9z"/></g><g id="change3_7"><path fill="#2f4d6b" d="M18.5,386.6c-0.1-0.7,0.3-1.3,1-1.5l0,0c0.7-0.1,1.3,0.3,1.5,1l0,0c0.1,0.7-0.3,1.3-1,1.5l0,0l0,0l0,0 c-0.1,0-0.2,0-0.2,0l0,0C19.1,387.6,18.6,387.2,18.5,386.6z M86.8,387.2c-0.7-0.1-1.1-0.8-1-1.5l0,0c0.1-0.7,0.8-1.1,1.5-1l0,0 c0.7,0.1,1.1,0.8,1,1.5l0,0c-0.1,0.6-0.6,1-1.2,1l0,0C86.9,387.2,86.9,387.2,86.8,387.2z M25.9,385.3c-0.1-0.7,0.4-1.3,1.1-1.4 l0,0c0.7-0.1,1.3,0.4,1.4,1.1l0,0c0.1,0.7-0.4,1.3-1.1,1.4l0,0c-0.1,0-0.1,0-0.2,0l0,0C26.5,386.3,26,385.9,25.9,385.3z M79.4,386L79.4,386L79.4,386c-0.7-0.1-1.2-0.7-1.1-1.4l0,0c0.1-0.7,0.7-1.2,1.4-1.1h0c0.7,0.1,1.2,0.7,1.1,1.4l0,0 c-0.1,0.6-0.6,1.1-1.3,1.1l0,0C79.5,386.1,79.5,386.1,79.4,386z M33.3,384.2c-0.1-0.7,0.4-1.3,1.1-1.4l0,0 c0.7-0.1,1.3,0.4,1.4,1.1l0,0c0.1,0.7-0.4,1.3-1.1,1.4l0,0c0,0-0.1,0-0.1,0l0,0C33.9,385.4,33.4,384.9,33.3,384.2z M72,385.1 c-0.7-0.1-1.2-0.7-1.1-1.4l0,0c0.1-0.7,0.7-1.2,1.4-1.1l0,0c0.7,0.1,1.2,0.7,1.1,1.4l0,0c-0.1,0.7-0.6,1.1-1.2,1.1l0,0 C72.1,385.2,72,385.2,72,385.1z M40.8,383.5c0-0.7,0.5-1.3,1.2-1.3l0,0c0.7,0,1.3,0.5,1.3,1.2l0,0c0.1,0.7-0.5,1.3-1.2,1.3l0,0 c0,0-0.1,0-0.1,0l0,0C41.4,384.7,40.9,384.2,40.8,383.5z M64.6,384.6c-0.7,0-1.2-0.6-1.2-1.3l0,0c0-0.7,0.6-1.2,1.3-1.2l0,0 c0.7,0,1.2,0.6,1.2,1.3l0,0C65.8,384,65.3,384.6,64.6,384.6L64.6,384.6C64.6,384.6,64.6,384.6,64.6,384.6z M49.6,384.3 c-0.7,0-1.3-0.5-1.3-1.2l0,0c0-0.7,0.5-1.3,1.2-1.3l0,0c0.7,0,1.3,0.5,1.3,1.2l0,0C50.9,383.7,50.3,384.3,49.6,384.3L49.6,384.3 L49.6,384.3z M57.1,384.3c-0.7,0-1.2-0.6-1.2-1.3l0,0c0-0.7,0.6-1.2,1.3-1.2l0,0c0.7,0,1.3,0.6,1.2,1.3l0,0 C58.3,383.7,57.8,384.3,57.1,384.3L57.1,384.3C57.1,384.3,57.1,384.3,57.1,384.3z"/></g></g></g></svg>